<?xml version="1.0" standalone="no"?><!DOCTYPE svg PUBLIC "-//W3C//DTD SVG 1.1//EN" "http://www.w3.org/Graphics/SVG/1.1/DTD/svg11.dtd"><svg t="1710219070734" class="icon" viewBox="0 0 1024 1024" version="1.1" xmlns="http://www.w3.org/2000/svg" p-id="5003" xmlns:xlink="http://www.w3.org/1999/xlink" width="200" height="200"><path d="M462.037 379.413c0 13.077 5.397 26.069 14.656 35.328s22.251 14.635 35.328 14.635 26.069-5.376 35.328-14.635c9.259-9.259 14.635-22.251 14.635-35.328s-5.376-26.069-14.635-35.328S525.077 329.45 512 329.45s-26.069 5.376-35.328 14.635-14.635 22.251-14.635 35.328zM462.037 563.499c0 13.077 5.397 26.069 14.656 35.307s22.251 14.635 35.328 14.635 26.069-5.376 35.328-14.635 14.635-22.229 14.635-35.307-5.376-26.069-14.635-35.328c-9.259-9.237-22.251-14.635-35.328-14.635s-26.069 5.397-35.328 14.635c-9.259 9.259-14.656 22.251-14.656 35.328zM766.912 130.731c-2.219-42.581-6.763-73.515-11.029-94.485-4.096-20.053-24.128-32.811-44.011-27.84-71.765 17.877-115.392 42.347-140.288 60.885-2.731-1.28-4.651-4.011-4.651-7.232h-113.28c0 2.453-1.173 4.587-2.901 6.059C425.6 49.707 382.336 25.921 312.043 8.385c-19.84-4.949-39.851 7.808-43.947 27.861-4.267 20.971-8.811 51.904-11.029 94.485a37.906 37.906 0 0 0 0 4.395c2.219 42.581 6.741 73.515 11.029 94.485 4.075 20.053 24.085 32.811 43.947 27.861 70.293-17.557 113.557-41.365 138.709-59.776 1.728 1.493 2.901 3.627 2.901 6.08h113.28c0-3.221 1.92-5.952 4.651-7.253 24.896 18.56 68.523 43.029 140.288 60.928 19.883 4.949 39.893-7.787 44.011-27.84 4.245-20.971 8.789-51.904 11.029-94.485a37.906 37.906 0 0 0 0-4.395z" p-id="5004"></path><path d="M998.805 308.395l-138.176-72.427c-18.816-9.856-42.112-3.093-52.693 15.381L546.325 707.264c-15.211 26.496-53.44 26.496-68.651 0L216.042 251.349c-10.581-18.475-33.856-25.237-52.693-15.381L25.173 308.395c-13.035 6.827-21.184 20.331-21.184 35.051v633.643c0 21.867 17.707 39.595 39.573 39.595h936.896c21.845 0 39.552-17.728 39.552-39.595V343.446c0-14.72-8.149-28.224-21.205-35.051z m-89.728 322.176H767.061c-18.56 0-36.053-12.587-38.656-30.955-3.136-22.315 14.101-41.472 35.861-41.472h142.037c18.517 0 36.032 12.608 38.635 30.955 3.136 22.315-14.101 41.472-35.861 41.472z" p-id="5005"></path></svg>