<?xml version="1.0" standalone="no"?><!DOCTYPE svg PUBLIC "-//W3C//DTD SVG 1.1//EN" "http://www.w3.org/Graphics/SVG/1.1/DTD/svg11.dtd"><svg t="1709610313584" class="icon" viewBox="0 0 1024 1024" version="1.1" xmlns="http://www.w3.org/2000/svg" p-id="1967" xmlns:xlink="http://www.w3.org/1999/xlink" width="200" height="200"><path d="M695.168 97.834667a42.666667 42.666667 0 0 1 60.330667 0l170.666666 170.666666a42.666667 42.666667 0 0 1 0 60.330667l-554.666666 554.666667A42.666667 42.666667 0 0 1 341.333333 896H170.666667a42.666667 42.666667 0 0 1-42.666667-42.666667v-170.666666a42.666667 42.666667 0 0 1 12.501333-30.165334l426.666667-426.666666 128-128zM597.333333 316.330667l-384 384V810.666667h110.336l384-384L597.333333 316.330667z m170.666667 50.005333L657.664 256 725.333333 188.330667 835.669333 298.666667 768 366.336z" fill="#000000" p-id="1968"></path></svg>