<?xml version="1.0" standalone="no"?><!DOCTYPE svg PUBLIC "-//W3C//DTD SVG 1.1//EN" "http://www.w3.org/Graphics/SVG/1.1/DTD/svg11.dtd"><svg t="1709610942682" class="icon" viewBox="0 0 1024 1024" version="1.1" xmlns="http://www.w3.org/2000/svg" p-id="2108" xmlns:xlink="http://www.w3.org/1999/xlink" width="200" height="200"><path d="M512 170.666667c-70.293333 0-128 57.706667-128 128v128h384a85.333333 85.333333 0 0 1 85.333333 85.333333v341.333333a85.333333 85.333333 0 0 1-85.333333 85.333334H256a85.333333 85.333333 0 0 1-85.333333-85.333334V512a85.333333 85.333333 0 0 1 85.333333-85.333333h42.666667v-128c0-117.44 95.893333-213.333333 213.333333-213.333334s213.333333 95.893333 213.333333 213.333334a42.666667 42.666667 0 1 1-85.333333 0c0-70.293333-57.706667-128-128-128zM256 512v341.333333h512V512H256z" fill="#000000" p-id="2109"></path></svg>