<?xml version="1.0" standalone="no"?><!DOCTYPE svg PUBLIC "-//W3C//DTD SVG 1.1//EN" "http://www.w3.org/Graphics/SVG/1.1/DTD/svg11.dtd"><svg t="1709787322287" class="icon" viewBox="0 0 1024 1024" version="1.1" xmlns="http://www.w3.org/2000/svg" p-id="10794" data-spm-anchor-id="a313x.collections_detail.0.i13.3c8a3a8134ddgi" xmlns:xlink="http://www.w3.org/1999/xlink" width="200" height="200"><path d="M833.9 781.3s-84.2-188.6-153.4-370.1C618.9 249.9 571.4 93.3 571.4 93.3c-9-23.5-35.3-35.3-58.8-26.3L214.7 180.7c-23.5 8.9-35.3 35.3-26.3 58.8 0 0 69.9 143.2 130.5 302.1 70 183.3 132 385.8 132 385.8 9 23.5 46.9 43 58.8 26.3 52.7-45.5 64.1-129.6 113.5-148.4 49.2-18.8 136.8 37.7 184.4 34.8 33.8 0.8 35.3-35.3 26.3-58.8z" fill="#2c2c2c" p-id="10795" data-spm-anchor-id="a313x.collections_detail.0.i12.3c8a3a8134ddgi" class="selected"></path></svg>